<?xml version="1.0" standalone="no"?>
<!DOCTYPE svg PUBLIC "-//W3C//DTD SVG 20010904//EN"
 "http://www.w3.org/TR/2001/REC-SVG-20010904/DTD/svg10.dtd">
<svg version="1.0" xmlns="http://www.w3.org/2000/svg"
 width="500.000000pt" height="500.000000pt" viewBox="0 0 500.000000 500.000000"
 preserveAspectRatio="xMidYMid meet">

<g transform="translate(0.000000,500.000000) scale(0.100000,-0.100000)"
fill="#000000" stroke="none">
<path d="M2345 4119 c-370 -46 -731 -306 -906 -651 -97 -193 -129 -321 -136
-543 -8 -262 25 -410 143 -650 77 -157 92 -235 99 -503 10 -367 21 -457 67
-545 29 -53 73 -102 112 -124 14 -8 12 -20 -20 -98 -20 -50 -45 -124 -55 -165
-24 -93 -36 -244 -21 -254 6 -3 54 -9 107 -13 113 -7 115 -9 113 -109 -1 -78
14 -117 61 -156 28 -24 34 -25 242 -31 437 -13 780 -9 855 8 108 25 139 65
150 193 l7 80 51 6 c28 3 75 6 105 6 l54 0 -6 108 c-6 115 -30 223 -76 341
l-29 75 48 22 c57 26 91 77 116 174 14 55 15 97 9 290 -5 183 -4 238 8 296 19
87 60 195 97 249 85 128 146 269 187 432 24 97 27 127 28 283 0 108 -5 198
-13 235 -93 426 -333 748 -692 926 -220 109 -457 149 -705 118z m585 -1480
c-16 -75 -20 -80 -57 -73 l-30 6 23 41 c26 48 63 174 66 227 1 19 4 -5 6 -55
2 -49 -2 -115 -8 -146z m-797 -38 l27 -41 -39 0 -39 0 -11 63 c-6 35 -11 84
-11 108 l1 44 22 -66 c13 -37 35 -85 50 -108z m367 29 c61 0 90 4 93 13 4 7 6
6 6 -4 1 -12 20 -22 64 -33 34 -9 82 -21 107 -27 l45 -12 -38 -8 c-114 -26
-200 -119 -222 -242 -7 -33 -11 -38 -29 -33 -11 3 -36 6 -53 6 -25 0 -33 4
-33 18 0 30 -46 118 -83 159 -32 34 -73 58 -156 90 -20 8 -7 13 82 33 88 19
108 27 113 44 4 12 9 16 11 9 3 -9 31 -13 93 -13z m842 -279 l-17 -84 -48 -14
c-27 -8 -53 -13 -59 -11 -6 2 -19 32 -30 66 -14 45 -34 81 -73 127 l-54 64 76
-35 c49 -23 85 -33 100 -29 33 8 88 60 104 97 14 33 14 33 16 -32 2 -36 -5
-103 -15 -149z m-354 152 c66 -33 143 -122 167 -191 21 -64 19 -186 -4 -237
-10 -22 -38 -59 -62 -83 -136 -134 -374 -67 -465 131 -24 52 -29 75 -29 142 0
70 4 87 30 134 74 134 222 177 363 104z m-773 9 c111 -38 175 -125 183 -247 4
-63 1 -80 -23 -134 -105 -233 -413 -243 -516 -17 -21 46 -25 149 -9 206 17 60
71 129 126 160 87 50 158 60 239 32z m-364 -56 l84 35 -37 -38 c-43 -45 -72
-100 -89 -165 -11 -47 -11 -47 -38 -34 -58 31 -77 58 -89 134 -7 40 -9 84 -6
97 6 25 7 25 48 -20 l42 -45 85 36z m679 -216 c13 0 20 -11 25 -39 18 -109
112 -232 211 -278 197 -90 410 20 439 228 6 43 9 46 52 62 26 10 48 16 50 14
7 -8 -56 -149 -98 -220 -23 -39 -62 -95 -86 -124 -88 -105 -281 -206 -473
-249 -30 -6 -44 -12 -31 -13 19 -1 22 -5 17 -23 -3 -13 -6 -33 -6 -45 0 -16
-10 -27 -32 -36 -18 -8 -42 -24 -52 -36 -29 -32 -62 -26 -113 19 -25 22 -50
40 -54 40 -5 0 -9 18 -9 39 0 33 4 40 23 43 13 3 -1 9 -38 16 -82 18 -195 57
-285 100 -104 51 -208 156 -272 278 -46 88 -93 212 -84 221 2 3 22 -6 44 -19
32 -18 42 -30 47 -58 28 -153 149 -254 305 -254 92 0 163 29 229 95 52 52 101
150 101 200 0 44 7 52 44 45 16 -3 37 -6 46 -6z m909 -14 c30 -36 -36 -148
-123 -207 -32 -21 -67 -39 -77 -39 -16 0 -14 7 15 58 19 31 44 85 57 120 20
52 29 64 54 71 44 13 61 13 74 -3z m-1734 -53 c9 -32 32 -91 51 -132 19 -41
34 -75 34 -78 0 -10 -79 32 -116 62 -110 91 -121 205 -20 205 33 0 35 -2 51
-57z m633 -591 c3 -28 1 -31 -25 -29 -43 3 -36 -25 10 -36 23 -6 59 -28 92
-59 51 -47 58 -50 93 -43 20 3 51 19 67 34 17 16 44 31 60 35 58 13 85 28 85
48 0 17 -5 19 -31 13 -30 -7 -32 -6 -26 16 4 13 7 29 7 36 0 7 9 17 20 23 27
14 93 -15 149 -65 47 -43 52 -71 15 -85 -39 -15 -24 -32 37 -45 68 -13 112
-40 177 -108 139 -148 246 -402 259 -617 l6 -96 -80 -3 -81 -2 -5 128 c-7 200
-36 257 -144 289 -44 13 -54 20 -59 42 -11 50 -27 83 -38 79 -6 -3 -10 -9 -9
-15 2 -6 6 -29 9 -52 l7 -42 -49 6 c-180 23 -574 32 -734 16 -52 -5 -96 -7
-98 -5 -2 2 1 20 8 40 13 40 6 75 -11 58 -6 -6 -16 -32 -23 -59 -11 -45 -14
-49 -57 -59 -67 -17 -85 -31 -108 -78 -18 -38 -21 -62 -21 -185 l0 -142 -90 0
-90 0 0 28 c0 50 21 156 46 242 75 248 235 458 402 530 58 25 70 53 27 64 -63
16 -3 93 98 126 69 23 101 14 105 -28z m482 -574 c130 -12 222 -30 254 -52 43
-28 51 -79 51 -334 l0 -234 -36 -33 c-44 -40 -94 -51 -259 -60 -119 -7 -814
11 -863 21 -16 4 -40 22 -55 42 l-27 35 0 270 0 269 32 28 c34 30 56 36 208
50 121 11 565 10 695 -2z"/>
<path d="M2910 2362 c-40 -22 -74 -76 -91 -146 -23 -94 24 -204 94 -222 69
-17 147 48 168 140 10 48 15 56 40 61 38 9 37 21 -3 29 l-33 7 33 14 c43 19
41 35 -3 28 -40 -6 -43 -1 -15 27 29 29 25 40 -10 33 -24 -4 -36 0 -54 16 -33
31 -83 36 -126 13z m110 -179 c0 -20 -3 -24 -11 -16 -7 7 -9 19 -6 27 10 24
17 19 17 -11z m-83 -37 c-4 -9 -11 -16 -17 -16 -11 0 -14 33 -3 44 11 10 26
-11 20 -28z"/>
<path d="M1971 2359 c-30 -17 -65 -31 -78 -31 -29 0 -29 -11 0 -31 l22 -15
-27 -7 c-31 -8 -34 -15 -16 -33 9 -9 9 -12 0 -12 -7 0 -12 -4 -12 -10 0 -5 8
-10 19 -10 15 0 20 -10 25 -48 24 -184 194 -246 266 -97 45 92 11 250 -65 299
-46 30 -76 29 -134 -5z m63 -64 c7 -19 -10 -65 -24 -65 -17 0 -22 24 -11 53
12 30 26 35 35 12z m63 -128 c13 -28 1 -52 -21 -44 -17 7 -20 24 -10 51 9 22
19 20 31 -7z"/>
<path d="M2362 1873 c2 -10 18 -27 36 -40 28 -18 47 -22 113 -21 86 0 129 20
129 59 0 24 -22 24 -44 0 -14 -16 -30 -19 -96 -17 -58 1 -84 6 -98 19 -24 22
-44 22 -40 0z"/>
<path d="M2807 1239 c-13 -17 -18 -19 -35 -8 -47 30 -69 -19 -31 -72 25 -35
52 -51 73 -43 24 9 59 91 52 119 -8 31 -39 33 -59 4z"/>
<path d="M2636 683 c-3 -3 -6 -14 -6 -24 0 -19 -35 -31 -67 -23 -17 5 -22 1
-25 -20 -4 -33 -21 -35 -28 -5 -3 12 -11 24 -18 27 -16 5 -16 -72 1 -85 19
-16 107 -14 107 2 0 8 -4 17 -10 20 -20 13 -10 32 14 28 17 -4 26 -14 30 -34
4 -21 11 -29 27 -29 18 0 20 4 14 29 -3 17 -2 32 4 36 16 9 13 35 -4 35 -8 0
-15 9 -15 19 0 21 -13 34 -24 24z"/>
<path d="M2307 625 c-9 -8 -19 -10 -28 -4 -22 14 -56 10 -63 -7 -11 -30 -6
-82 10 -95 21 -18 36 5 23 38 -11 30 -11 33 1 33 5 0 16 -13 25 -30 18 -35 41
-39 51 -8 l7 23 8 -23 c10 -26 27 -29 36 -6 7 19 -23 80 -43 88 -7 3 -20 -1
-27 -9z"/>
<path d="M2384 625 c-13 -33 27 -165 51 -165 17 0 19 18 5 54 -8 21 -6 27 10
36 12 6 20 21 20 35 0 41 -73 75 -86 40z m54 -32 c-4 -22 -22 -20 -26 1 -2 10
3 16 13 16 10 0 15 -7 13 -17z"/>
<path d="M2713 628 c-6 -7 -14 -23 -17 -35 -13 -42 52 -80 93 -54 20 13 6 42
-16 34 -15 -5 -15 -3 2 10 16 13 18 19 9 34 -13 22 -57 29 -71 11z"/>
<path d="M2809 627 c-2 -18 1 -49 7 -75 3 -17 11 -22 27 -20 17 2 22 10 22 33
0 27 3 30 28 27 28 -3 39 20 15 34 -21 14 -98 14 -99 1z"/>
<path d="M2021 601 c-17 -31 -13 -86 7 -104 23 -21 75 -22 92 -2 7 9 21 13 30
10 40 -13 69 67 35 95 -22 18 -64 4 -71 -25 -3 -13 -3 -28 0 -34 8 -12 -38
-26 -53 -16 -6 3 -11 19 -11 36 0 23 4 29 21 29 30 0 18 24 -14 28 -18 2 -29
-3 -36 -17z m149 -42 c0 -24 -23 -21 -28 4 -2 10 3 17 12 17 10 0 16 -9 16
-21z"/>
</g>
</svg>
